<?xml version="1.0" standalone="no"?>
<!DOCTYPE svg PUBLIC "-//W3C//DTD SVG 20010904//EN"
 "http://www.w3.org/TR/2001/REC-SVG-20010904/DTD/svg10.dtd">
<svg version="1.0" xmlns="http://www.w3.org/2000/svg"
 width="132.000000pt" height="144.000000pt" viewBox="0 0 132.000000 144.000000"
 preserveAspectRatio="xMidYMid meet">

<g transform="translate(0.000000,144.000000) scale(0.100000,-0.100000)"
fill="#000000" stroke="none">
<path d="M290 1401 c-5 -11 -10 -42 -10 -70 l0 -51 -106 0 c-103 0 -106 -1
-135 -29 l-29 -29 0 -557 c0 -587 1 -602 45 -619 27 -10 1171 -7 1198 3 14 6
29 23 36 42 12 34 17 1113 5 1144 -12 32 -59 45 -159 45 l-95 0 0 48 c0 59
-21 92 -59 92 -40 0 -51 -17 -51 -82 l0 -58 -270 0 -270 0 0 51 c0 69 -12 89
-55 89 -24 0 -38 -6 -45 -19z m0 -238 c0 -27 25 -63 43 -63 21 0 47 34 47 62
0 31 24 39 34 12 11 -30 6 -61 -15 -88 -29 -37 -99 -37 -128 0 -21 27 -26 58
-15 88 10 26 34 19 34 -11z m652 -9 c6 -69 63 -72 82 -5 14 48 36 40 36 -13 0
-54 -24 -76 -82 -76 -51 0 -78 28 -78 78 0 41 6 52 26 52 7 0 14 -15 16 -36z
m278 -644 l0 -390 -557 2 -558 3 -3 388 -2 387 560 0 560 0 0 -390z"/>
<path d="M242 808 c-17 -17 -16 -122 2 -137 9 -7 40 -11 78 -9 l63 3 0 75 0
75 -65 3 c-42 2 -70 -2 -78 -10z"/>
<path d="M472 808 c-17 -17 -16 -122 2 -137 9 -7 40 -11 78 -9 l63 3 0 75 0
75 -65 3 c-42 2 -70 -2 -78 -10z"/>
<path d="M702 808 c-17 -17 -16 -122 2 -137 9 -7 40 -11 78 -9 l63 3 0 75 0
75 -65 3 c-42 2 -70 -2 -78 -10z"/>
<path d="M926 805 c-12 -32 -6 -122 8 -134 9 -7 40 -11 78 -9 l63 3 0 75 0 75
-71 3 c-59 2 -73 0 -78 -13z"/>
<path d="M242 578 c-17 -17 -16 -122 2 -137 9 -7 40 -11 78 -9 l63 3 0 75 0
75 -65 3 c-42 2 -70 -2 -78 -10z"/>
<path d="M466 575 c-12 -32 -6 -122 8 -134 9 -7 40 -11 78 -9 l63 3 0 75 0 75
-71 3 c-59 2 -73 0 -78 -13z"/>
<path d="M696 575 c-12 -32 -6 -122 8 -134 9 -7 40 -11 78 -9 l63 3 0 75 0 75
-71 3 c-59 2 -73 0 -78 -13z"/>
<path d="M932 578 c-17 -17 -16 -122 2 -137 9 -7 40 -11 78 -9 l63 3 0 75 0
75 -65 3 c-42 2 -70 -2 -78 -10z"/>
<path d="M236 345 c-11 -29 -6 -111 7 -129 10 -14 25 -16 77 -14 l65 3 0 75 0
75 -71 3 c-59 2 -73 0 -78 -13z"/>
<path d="M466 345 c-11 -28 -7 -120 6 -133 14 -14 116 -16 136 -3 9 5 12 28
10 77 l-3 69 -71 3 c-59 2 -73 0 -78 -13z"/>
<path d="M696 345 c-11 -28 -7 -120 6 -133 14 -14 116 -16 136 -3 9 5 12 28
10 77 l-3 69 -71 3 c-59 2 -73 0 -78 -13z"/>
<path d="M926 345 c-11 -28 -7 -120 6 -133 14 -14 116 -16 136 -3 9 5 12 28
10 77 l-3 69 -71 3 c-59 2 -73 0 -78 -13z"/>
</g>
</svg>
