<?xml version="1.0" standalone="no"?>
<!DOCTYPE svg PUBLIC "-//W3C//DTD SVG 20010904//EN"
 "http://www.w3.org/TR/2001/REC-SVG-20010904/DTD/svg10.dtd">
<svg version="1.0" xmlns="http://www.w3.org/2000/svg"
 width="296.000000pt" height="264.000000pt" viewBox="0 0 296.000000 264.000000"
 preserveAspectRatio="xMidYMid meet">

<g transform="translate(0.000000,264.000000) scale(0.100000,-0.100000)"
fill="#000000" stroke="none">
<path d="M1335 2594 c-142 -25 -215 -52 -257 -94 l-39 -38 3 -134 3 -133 148
-3 147 -3 0 -134 0 -135 -28 0 c-15 0 -33 -5 -40 -12 -9 -9 -12 -187 -12 -740
l0 -728 -33 0 c-18 0 -38 -5 -45 -12 -17 -17 -17 -329 0 -346 17 -17 669 -17
686 0 17 17 17 332 -1 346 -6 6 -28 12 -47 14 l-35 3 -2 725 c-2 398 -5 730
-7 737 -3 7 -19 13 -36 13 l-30 0 0 130 c0 153 -17 139 170 143 l125 2 3 132
3 132 -38 39 c-29 30 -55 45 -107 61 -162 50 -370 64 -531 35z m462 -63 c51
-13 107 -32 125 -45 l33 -22 3 -117 3 -117 -436 0 -435 0 0 113 c0 139 4 145
118 176 125 34 186 40 347 37 112 -3 174 -9 242 -25z m-159 -347 c21 -6 22
-10 22 -135 l0 -129 -135 0 -135 0 0 129 c0 94 3 131 13 134 17 8 208 8 235 1z
m100 -1026 l-3 -713 -210 0 -210 0 -3 713 -2 712 215 0 215 0 -2 -712z m92
-903 l0 -135 -305 0 -305 0 0 135 0 135 305 0 305 0 0 -135z"/>
<path d="M506 2548 c-15 -21 -14 -24 3 -42 36 -35 79 7 46 44 -23 25 -30 25
-49 -2z"/>
<path d="M2496 2557 c-21 -16 -18 -45 6 -61 14 -8 22 -6 38 9 18 19 19 22 4
43 -18 26 -24 27 -48 9z"/>
<path d="M636 2421 c-33 -36 18 -83 52 -49 18 18 14 46 -7 58 -25 13 -25 13
-45 -9z"/>
<path d="M2362 2428 c-25 -25 -6 -68 30 -68 27 0 40 33 22 58 -17 25 -34 28
-52 10z"/>
<path d="M506 2288 c-15 -21 -14 -24 4 -43 16 -15 24 -17 38 -9 24 16 27 45 6
61 -24 18 -30 17 -48 -9z"/>
<path d="M770 2292 c-19 -16 -21 -22 -11 -40 13 -24 40 -29 59 -10 35 35 -10
81 -48 50z"/>
<path d="M2236 2297 c-21 -16 -18 -45 6 -61 14 -8 22 -6 40 11 21 22 21 23 3
43 -21 24 -25 24 -49 7z"/>
<path d="M2498 2299 c-21 -12 -23 -40 -6 -57 34 -34 79 7 52 46 -17 25 -22 26
-46 11z"/>
<path d="M636 2158 c-27 -39 18 -80 52 -46 18 18 14 46 -7 58 -26 14 -28 13
-45 -12z"/>
<path d="M896 2158 c-27 -39 18 -80 52 -46 18 18 14 46 -7 58 -26 14 -28 13
-45 -12z"/>
<path d="M2105 2166 c-20 -15 -17 -45 7 -60 24 -15 61 19 48 44 -13 25 -35 31
-55 16z"/>
<path d="M2362 2168 c-25 -25 -6 -68 30 -68 9 0 22 9 28 21 9 16 8 25 -6 40
-20 22 -35 24 -52 7z"/>
<path d="M506 2028 c-27 -39 18 -80 52 -46 18 18 14 46 -7 58 -26 14 -28 13
-45 -12z"/>
<path d="M770 2032 c-19 -16 -21 -22 -11 -40 13 -24 40 -29 59 -10 35 35 -10
81 -48 50z"/>
<path d="M1026 2029 c-19 -28 -4 -62 26 -57 29 4 46 33 32 56 -16 25 -40 26
-58 1z"/>
<path d="M1978 2039 c-21 -12 -23 -40 -6 -57 34 -34 82 14 50 51 -17 20 -21
20 -44 6z"/>
<path d="M2232 2038 c-25 -25 -6 -68 30 -68 9 0 22 9 28 21 9 16 8 25 -6 40
-20 22 -35 24 -52 7z"/>
<path d="M2495 2036 c-20 -15 -17 -44 7 -59 12 -8 21 -7 32 2 36 30 -1 85 -39
57z"/>
<path d="M639 1899 l-21 -21 21 -21 c17 -17 25 -19 39 -11 25 16 27 51 3 64
-17 8 -25 6 -42 -11z"/>
<path d="M900 1900 c-16 -16 -18 -25 -10 -40 12 -22 40 -26 58 -8 18 18 14 46
-8 58 -15 8 -24 6 -40 -10z"/>
<path d="M2105 1906 c-20 -15 -17 -45 7 -60 24 -15 61 19 48 44 -13 25 -35 31
-55 16z"/>
<path d="M2365 1906 c-20 -15 -17 -45 7 -60 24 -15 61 19 48 44 -13 25 -35 31
-55 16z"/>
<path d="M506 1768 c-27 -39 18 -80 52 -46 18 18 14 46 -7 58 -26 14 -28 13
-45 -12z"/>
<path d="M770 1772 c-19 -16 -21 -22 -11 -40 13 -24 40 -29 59 -10 35 35 -10
81 -48 50z"/>
<path d="M2237 1779 c-32 -18 -14 -69 25 -69 19 0 42 35 33 50 -12 19 -40 28
-58 19z"/>
<path d="M2495 1776 c-20 -15 -17 -45 7 -60 24 -15 61 19 48 44 -13 25 -35 31
-55 16z"/>
<path d="M641 1641 c-17 -17 -19 -25 -11 -42 13 -24 48 -22 64 3 8 14 6 22
-11 39 l-21 21 -21 -21z"/>
<path d="M2364 1639 c-21 -24 -10 -52 24 -57 30 -5 45 29 26 56 -19 27 -26 27
-50 1z"/>
<path d="M506 1508 c-19 -27 -4 -61 26 -56 34 5 45 33 24 57 -24 26 -31 26
-50 -1z"/>
<path d="M2497 1519 c-32 -18 -14 -69 25 -69 19 0 38 28 31 48 -8 20 -37 31
-56 21z"/>
<path d="M605 969 c-131 -123 -215 -307 -232 -506 -3 -43 -10 -73 -17 -73 -6
0 -27 30 -46 67 -67 128 -182 215 -226 171 -13 -13 -10 -23 20 -84 65 -132
133 -320 151 -416 4 -21 13 -42 20 -48 8 -7 72 -10 176 -8 l164 3 12 107 c6
59 19 133 28 163 40 138 118 253 215 315 53 34 57 39 39 57 -8 8 -25 7 -63 -4
-83 -25 -146 -61 -203 -119 -52 -51 -73 -65 -73 -45 0 46 74 334 105 409 14
31 14 38 1 50 -13 13 -22 8 -71 -39z m-15 -116 c0 -5 -13 -61 -30 -126 -47
-186 -104 -545 -93 -587 4 -15 0 -20 -15 -20 -18 0 -21 9 -27 97 -20 259 23
482 117 616 18 25 48 37 48 20z m-369 -335 c47 -64 169 -341 169 -385 0 -9
-16 -13 -45 -13 -34 0 -45 4 -45 15 0 24 -69 230 -106 319 -19 44 -34 86 -34
93 0 27 31 12 61 -29z m439 -18 c0 -12 -9 -39 -20 -60 -24 -47 -60 -190 -60
-240 0 -63 -9 -80 -42 -80 l-30 0 7 68 c3 37 13 94 21 126 14 55 63 164 86
194 16 19 38 14 38 -8z"/>
<path d="M2138 714 c-14 -14 -8 -22 42 -54 67 -43 124 -110 166 -193 42 -83
61 -155 77 -289 l12 -103 124 -3 c77 -2 128 1 136 8 7 6 16 26 19 44 13 70 90
285 139 389 58 123 55 142 -13 107 -23 -12 -63 -40 -88 -63 -49 -46 -134 -168
-154 -223 -6 -19 -17 -34 -23 -34 -6 0 -19 26 -29 58 -44 142 -142 264 -259
322 -65 32 -136 48 -149 34z m302 -226 c43 -66 74 -152 90 -251 17 -104 15
-117 -19 -117 -33 0 -41 14 -41 74 0 59 -34 188 -70 265 -17 35 -30 69 -30 77
0 32 33 10 70 -48z m350 11 c0 -6 -20 -64 -43 -128 -24 -64 -52 -146 -62 -184
l-18 -67 -43 0 c-24 0 -44 4 -44 8 0 24 34 131 60 188 52 116 150 235 150 183z"/>
<path d="M940 450 c-98 -51 -180 -157 -239 -306 -15 -38 -17 -54 -8 -63 15
-15 130 -14 145 1 7 7 12 30 12 53 1 54 23 145 50 200 23 47 75 95 102 95 20
0 42 26 33 40 -10 16 -36 11 -95 -20z m-130 -244 c0 -58 -12 -86 -36 -86 -29
0 -30 11 -6 67 19 47 42 57 42 19z"/>
<path d="M2021 466 c-12 -14 -8 -18 25 -32 22 -9 47 -23 58 -32 43 -39 96
-187 96 -273 0 -50 17 -61 92 -57 57 3 63 5 66 26 5 34 -83 207 -131 260 -45
49 -129 107 -169 117 -16 4 -29 1 -37 -9z m263 -279 c21 -57 20 -67 -8 -67
-18 0 -25 7 -30 31 -17 85 9 110 38 36z"/>
</g>
</svg>
