<?xml version="1.0" standalone="no"?>
<!DOCTYPE svg PUBLIC "-//W3C//DTD SVG 20010904//EN"
 "http://www.w3.org/TR/2001/REC-SVG-20010904/DTD/svg10.dtd">
<svg version="1.0" xmlns="http://www.w3.org/2000/svg"
 width="250.000000pt" height="250.000000pt" viewBox="0 0 250.000000 250.000000"
 preserveAspectRatio="xMidYMid meet">

<g transform="translate(0.000000,250.000000) scale(0.100000,-0.100000)"
fill="#000000" stroke="none">
<path d="M773 2109 c-18 -12 -33 -29 -33 -39 0 -11 -6 -23 -13 -27 -21 -12
-50 -99 -43 -127 3 -14 2 -28 -4 -31 -5 -3 -10 -25 -10 -49 0 -23 -5 -47 -11
-53 -6 -6 -12 -29 -12 -52 -1 -22 -5 -41 -8 -41 -8 0 -21 -80 -23 -140 -1 -40
-5 -47 -35 -62 -45 -23 -63 -51 -60 -97 2 -24 -4 -49 -16 -67 -17 -26 -17 -30
-2 -57 16 -27 16 -29 -8 -51 -35 -33 -33 -70 7 -107 18 -16 28 -29 23 -29 -6
-1 -42 -2 -80 -3 -71 -2 -77 -5 -131 -54 -48 -44 -17 -136 50 -148 25 -5 49 0
92 20 106 49 104 49 104 15 0 -17 4 -30 9 -30 5 0 13 -9 16 -21 5 -16 12 -19
31 -15 29 8 64 -9 64 -29 0 -22 41 -45 81 -45 35 0 72 24 95 61 5 8 24 25 42
38 17 12 32 29 32 37 0 8 5 14 10 14 6 0 34 25 63 55 l53 56 -4 -42 c-3 -33 0
-46 14 -56 28 -20 71 -16 88 9 19 27 19 27 0 -122 -27 -204 -27 -205 -10 -239
17 -32 51 -47 85 -36 19 6 41 -7 82 -49 17 -18 20 -18 51 -3 l33 16 14 -32 c7
-18 17 -40 22 -49 5 -10 9 -29 9 -42 0 -13 7 -26 15 -30 8 -3 15 -12 15 -20 0
-17 22 -26 66 -26 27 0 42 8 65 32 16 18 29 42 29 54 0 23 -20 86 -29 94 -16
13 -61 80 -61 90 0 7 11 5 30 -5 36 -19 50 -19 50 0 0 8 9 19 20 25 13 7 20
21 20 39 0 23 6 30 33 37 23 7 37 20 50 47 10 23 24 37 35 37 26 0 42 41 42
105 0 52 1 55 35 71 19 9 35 21 35 27 0 5 13 24 29 41 17 17 62 64 100 105 39
41 71 82 72 90 0 11 2 12 6 4 8 -22 36 -15 30 7 -3 12 2 25 12 33 29 20 61
105 61 161 0 82 -38 126 -162 187 -24 12 -184 11 -222 0 -17 -5 -60 -18 -96
-27 -36 -10 -68 -23 -72 -30 -4 -6 -24 -15 -45 -19 -20 -4 -48 -16 -62 -27
-24 -19 -26 -19 -30 -2 -4 21 -25 44 -40 44 -6 0 -11 5 -11 11 0 7 -15 10 -40
7 -23 -2 -40 1 -40 7 -1 14 -70 65 -90 65 -9 0 -21 -5 -27 -11 -7 -7 -14 9
-22 53 -17 87 -33 138 -43 138 -4 0 -8 13 -8 28 0 15 -9 45 -20 67 -11 22 -20
44 -20 50 0 6 -9 18 -20 28 -11 9 -20 23 -20 30 0 20 -81 94 -122 112 -57 23
-175 20 -215 -6z m157 -82 l24 -30 -47 5 c-52 6 -77 22 -77 47 0 30 71 14 100
-22z m161 -120 c26 -51 28 -58 12 -55 -10 2 -19 14 -22 28 -1 14 -6 27 -10 30
-4 3 -15 21 -24 41 -9 20 -23 42 -32 49 -8 7 -15 18 -15 24 1 20 60 -57 91
-117z m-231 27 c22 -20 38 -40 35 -44 -7 -11 -115 42 -115 57 0 10 14 20 32
22 5 1 26 -15 48 -35z m85 -4 c3 -5 1 -10 -4 -10 -6 0 -11 5 -11 10 0 6 2 10
4 10 3 0 8 -4 11 -10z m88 -38 c-13 -2 -23 -9 -23 -17 0 -7 -7 -16 -16 -19
-12 -5 -15 -2 -10 10 3 8 6 21 6 28 0 9 10 11 33 7 26 -4 28 -6 10 -9z m-159
-101 c4 -5 -11 -5 -35 0 -66 15 -91 33 -73 52 7 7 99 -37 108 -52z m56 29 c0
-11 -2 -20 -4 -20 -2 0 -6 9 -9 20 -3 11 -1 20 4 20 5 0 9 -9 9 -20z m150 -1
c0 -5 -3 -9 -7 -9 -5 0 -19 -3 -32 -7 -24 -6 -24 -6 -5 14 18 19 44 20 44 2z
m89 -130 c38 -151 45 -199 29 -199 -9 0 -14 19 -16 53 -3 65 -58 227 -81 242
-6 3 -3 14 7 25 22 26 25 20 61 -121z m-208 82 c-9 -6 -30 -79 -31 -108 0 -23
28 -14 33 10 3 16 5 13 6 -10 1 -23 -3 -33 -14 -33 -8 0 -15 -6 -15 -14 0 -10
-7 -11 -35 -2 -19 6 -30 13 -23 15 19 6 38 28 38 43 0 7 -7 25 -15 41 -13 25
-12 28 5 40 11 6 20 17 20 23 0 7 9 10 21 7 11 -3 16 -9 10 -12z m-147 -57
c26 -15 45 -28 42 -31 -10 -10 -106 29 -106 43 0 20 11 18 64 -12z m244 -10
c-19 -11 -24 -10 -26 3 -5 21 19 35 36 21 11 -9 9 -14 -10 -24z m57 -74 c17
-33 20 -60 5 -60 -5 0 -10 -9 -10 -20 0 -13 -7 -20 -20 -20 -11 0 -20 -4 -20
-10 0 -5 -7 -10 -15 -10 -8 0 -15 7 -15 15 0 8 5 15 10 15 6 0 10 7 10 15 0 8
-7 15 -16 15 -22 0 -10 49 18 73 28 23 35 22 53 -13z m-329 -20 c19 -16 53
-35 76 -41 24 -7 50 -19 58 -27 13 -12 12 -13 -9 -7 -65 20 -183 84 -176 95 9
15 14 13 51 -20z m198 -30 c4 -25 3 -31 -4 -20 -5 8 -10 26 -10 39 0 32 6 24
14 -19z m-303 -17 c-12 -20 -14 -14 -5 12 4 9 9 14 11 11 3 -2 0 -13 -6 -23z
m602 -18 c-3 -9 -8 -14 -10 -11 -3 3 -2 9 2 15 9 16 15 13 8 -4z m-503 -20
c25 -13 39 -24 32 -25 -14 0 -92 38 -92 45 0 9 15 4 60 -20z m1239 5 c9 -5
-16 -11 -62 -15 -55 -5 -77 -11 -77 -21 0 -8 10 -14 23 -14 17 0 19 -2 7 -10
-9 -5 -19 -5 -27 2 -7 5 -20 8 -28 4 -10 -4 -15 1 -15 14 0 22 -24 26 -50 10
-12 -8 -13 -13 -2 -27 7 -10 15 -26 18 -35 7 -21 30 -24 37 -5 3 6 6 2 6 -10
1 -26 41 -34 41 -8 0 8 8 15 17 15 13 0 14 -3 5 -12 -7 -7 -12 -27 -12 -45 0
-18 -4 -33 -9 -33 -5 0 -7 9 -4 20 4 15 0 20 -16 20 -13 0 -21 -6 -21 -16 0
-11 -5 -14 -16 -10 -9 3 -20 6 -24 6 -5 0 -10 21 -12 48 l-3 47 -43 3 c-50 4
-129 -18 -220 -60 -35 -17 -65 -28 -68 -26 -6 7 221 113 282 132 129 42 227
51 273 26z m-884 -49 c3 -5 -4 -12 -15 -16 -11 -3 -21 -14 -21 -23 -1 -16 -2
-16 -6 0 -7 28 28 60 42 39z m987 -31 c20 -24 24 -85 8 -95 -7 -4 -9 2 -5 18
6 21 2 25 -22 30 -16 3 -40 22 -56 41 l-28 36 42 -4 c29 -2 49 -11 61 -26z
m-1327 1 c3 -6 26 -13 50 -17 35 -5 45 -10 45 -25 0 -13 -7 -19 -24 -19 -13 0
-31 -2 -39 -5 -9 -4 -13 1 -13 17 1 15 -7 27 -21 33 -13 5 -23 13 -23 17 0 11
18 10 25 -1z m414 -63 c-1 -100 -12 -107 -29 -18 l-16 80 23 0 c22 0 23 -4 22
-62z m-484 28 c19 -10 18 -11 -8 -14 -16 -2 -42 5 -60 17 l-32 20 40 -6 c22
-3 49 -11 60 -17z m1261 6 c-10 -2 -22 0 -28 6 -6 6 0 7 19 4 21 -5 23 -7 9
-10z m-1390 -28 c-13 -12 -16 -12 -16 -2 0 19 24 42 28 28 2 -5 -4 -17 -12
-26z m1137 -26 l-18 -30 -3 28 c-2 15 2 30 9 35 24 14 30 -2 12 -33z m-738 12
c11 -4 28 -22 39 -40 18 -32 18 -32 -2 -21 -11 6 -29 11 -40 11 -15 0 -18 5
-14 26 4 22 2 25 -18 22 -13 -2 -25 3 -28 11 -4 13 9 11 63 -9z m98 13 c2 -5
7 -21 11 -38 l7 -30 -21 30 c-22 33 -25 45 -11 45 6 0 12 -3 14 -7z m565 -35
c5 -39 -13 -65 -58 -88 -34 -17 -40 -18 -40 -5 0 8 5 15 10 15 6 0 10 6 10 14
0 9 8 12 25 8 22 -4 25 -1 25 28 0 26 -3 31 -22 30 -40 -4 -44 1 -13 15 42 19
59 14 63 -17z m375 1 c41 -11 59 -36 37 -49 -12 -8 -84 25 -114 52 -14 11 31
10 77 -3z m-1337 -13 c18 -14 18 -15 -9 -21 -16 -4 -40 -2 -59 6 -27 11 -29
14 -12 20 30 12 59 10 80 -5z m93 -7 c17 -18 24 -20 49 -11 31 11 82 5 82 -9
0 -5 -22 -9 -49 -9 -27 0 -63 -3 -80 -6 -29 -6 -31 -5 -31 25 0 37 3 38 29 10z
m676 -31 c5 -4 -3 -8 -18 -8 -15 0 -55 -14 -89 -31 l-61 -31 21 26 c11 14 42
41 68 60 48 33 49 33 59 12 5 -11 14 -24 20 -28z m335 29 c0 -7 -8 -22 -19
-33 -10 -11 -24 -30 -30 -42 -9 -17 -18 -21 -36 -16 -15 4 -25 2 -25 -5 0 -6
-8 -11 -17 -11 -10 0 -31 -7 -47 -15 -16 -9 -31 -13 -34 -11 -2 3 30 21 71 40
44 21 87 50 103 70 33 40 34 40 34 23z m-525 -47 c-9 -10 -21 -35 -27 -56 -12
-45 -67 -141 -85 -148 -8 -3 -13 3 -13 14 0 11 7 20 15 20 18 0 60 80 69 133
4 23 13 37 21 37 8 0 15 7 15 16 0 8 5 12 11 9 7 -5 5 -13 -6 -25z m-692 -6
c-4 -10 -9 -12 -15 -6 -12 12 -1 35 12 27 5 -3 6 -13 3 -21z m159 -10 c-4 -23
-6 -24 -15 -9 -8 14 2 32 19 35 1 0 -1 -12 -4 -26z m765 7 c10 -15 8 -20 -11
-29 -21 -9 -22 -8 -18 19 5 34 13 36 29 10z m330 -3 c-3 -8 -6 -5 -6 6 -1 11
2 17 5 13 3 -3 4 -12 1 -19z m-715 -18 c-25 -24 -44 -26 -36 -5 4 8 15 15 25
15 10 0 19 5 19 12 0 6 3 8 7 5 3 -4 -3 -16 -15 -27z m831 5 c26 -11 47 -26
47 -32 0 -24 -38 -13 -76 23 -42 39 -41 39 29 9z m-1012 -22 c9 -8 43 -28 75
-44 l59 -30 -59 5 c-35 3 -66 12 -77 22 -11 9 -29 22 -41 28 -28 14 -34 33
-11 38 20 5 31 1 54 -19z m-267 -20 c-25 -19 -78 -13 -82 9 -4 20 31 28 72 14
28 -9 28 -10 10 -23z m373 31 c-3 -3 -12 -4 -19 -1 -8 3 -5 6 6 6 11 1 17 -2
13 -5z m-210 -65 c7 -6 13 -22 13 -35 0 -15 6 -24 15 -24 8 0 15 5 15 10 0 19
42 10 47 -10 3 -11 14 -20 24 -20 11 0 19 -3 19 -6 0 -14 -31 -34 -53 -34 -20
0 -24 4 -20 20 5 18 0 20 -36 20 -38 0 -41 2 -31 19 17 34 12 43 -19 36 -26
-6 -29 -4 -24 14 4 16 1 21 -15 21 -22 0 -36 13 -25 23 6 7 69 -17 90 -34z
m613 22 c0 -10 -35 -21 -65 -20 -13 0 -8 5 15 13 45 17 50 18 50 7z m449 -31
c21 -9 26 -30 8 -30 -22 0 -97 51 -91 62 3 4 20 1 37 -8 18 -9 38 -20 46 -24z
m-129 15 c0 -9 -6 -12 -15 -9 -8 4 -15 10 -15 15 0 5 7 9 15 9 8 0 15 -7 15
-15z m-1190 -25 c0 -3 -4 -11 -9 -19 -8 -12 -12 -13 -25 -1 -15 12 -15 14 1
32 13 14 18 16 25 6 4 -7 8 -15 8 -18z m556 -5 c-35 -32 -66 -49 -66 -35 0 5
7 10 15 10 8 0 15 9 15 19 0 18 10 23 54 30 5 0 -3 -10 -18 -24z m575 -15 c23
-16 58 -32 78 -36 40 -7 63 -22 55 -35 -5 -9 -133 51 -173 82 -39 31 -4 21 40
-11z m-991 13 c0 -15 -55 -63 -71 -63 -30 0 -31 18 -5 45 23 23 76 35 76 18z
m613 -24 c4 -16 2 -17 -14 -8 -10 5 -19 16 -19 24 0 20 27 8 33 -16z m193 -24
c21 -23 21 -24 3 -30 -10 -4 -19 -11 -19 -16 0 -5 -7 -9 -15 -9 -8 0 -15 9
-15 19 0 11 -9 23 -20 26 -11 3 -20 10 -20 15 0 5 -8 11 -17 13 -10 3 4 5 31
6 40 1 53 -3 72 -24z m-483 -5 c17 0 12 -7 -24 -37 -24 -20 -92 -84 -150 -140
-76 -75 -110 -102 -122 -97 -10 3 -17 10 -17 15 0 4 6 6 14 3 16 -6 116 92
116 114 0 7 14 19 30 25 17 6 30 17 30 24 0 7 7 13 15 13 8 0 15 7 15 15 0 8
8 15 18 15 25 0 42 19 43 50 0 14 3 19 6 13 2 -7 14 -13 26 -13z m216 -31 c-7
-4 -9 -19 -7 -33 3 -14 1 -26 -3 -26 -5 0 -9 -7 -9 -16 0 -11 6 -15 19 -11 12
3 22 -1 25 -9 3 -8 1 -14 -5 -14 -6 0 -10 -8 -9 -17 3 -25 -10 -63 -21 -63
-14 0 -11 -30 5 -45 13 -14 11 -65 -4 -65 -10 0 -30 -71 -30 -107 0 -16 5 -34
10 -39 8 -8 7 -14 -3 -23 -11 -9 -17 -8 -26 2 -8 11 -7 41 4 120 8 59 17 159
21 224 3 65 8 129 10 143 5 24 6 24 20 6 10 -14 11 -22 3 -27z m-521 -4 c-21
-19 -43 -35 -49 -35 -6 0 6 16 27 35 22 19 44 35 49 34 6 0 -7 -15 -27 -34z
m1162 5 c-6 -11 -13 -20 -16 -20 -2 0 0 9 6 20 6 11 13 20 16 20 2 0 0 -9 -6
-20z m-310 -10 c0 -5 -4 -10 -10 -10 -5 0 -10 5 -10 10 0 6 5 10 10 10 6 0 10
-4 10 -10z m-995 -39 c-4 -18 -13 -31 -22 -31 -8 0 -56 -14 -106 -30 -75 -26
-93 -29 -104 -17 -33 32 38 66 140 67 39 0 53 5 70 24 26 30 31 27 22 -13z
m558 26 c2 -7 -7 -26 -20 -42 l-25 -29 7 35 c4 18 9 37 12 42 7 11 20 8 26 -6z
m628 -35 c-12 -4 -67 24 -76 38 -4 6 14 0 40 -12 25 -12 42 -24 36 -26z m-967
-9 c-37 -65 -54 -83 -76 -83 -15 0 -17 4 -9 19 12 21 97 111 106 111 3 0 -6
-21 -21 -47z m511 37 c3 -5 15 -10 25 -10 11 0 24 -9 30 -20 12 -22 40 -27 40
-7 0 6 12 -1 26 -17 19 -22 22 -31 13 -37 -7 -4 -22 -1 -33 7 -11 8 -29 14
-40 14 -19 0 -86 56 -86 72 0 11 18 10 25 -2z m320 -19 l33 -29 -30 -6 c-37
-7 -36 -8 -44 32 -8 39 -1 40 41 3z m190 -31 c-10 -11 -22 -20 -26 -20 -5 0
-1 9 8 20 10 11 22 20 27 20 5 0 1 -9 -9 -20z m-301 -3 c8 -7 17 -23 21 -36 5
-18 12 -21 31 -17 31 8 34 -20 3 -29 -24 -8 -20 -12 -53 48 -26 46 -27 59 -2
34z m-862 -29 c-19 -19 -14 -44 11 -56 21 -10 21 -11 -6 -11 -31 -1 -67 15
-67 28 0 5 8 7 18 5 12 -4 21 4 29 27 7 18 16 30 20 26 4 -4 1 -13 -5 -19z
m1075 0 c-3 -8 -6 -5 -6 6 -1 11 2 17 5 13 3 -3 4 -12 1 -19z m-397 -38 c19
-17 43 -30 55 -30 22 -1 136 -58 120 -61 -5 -1 -24 -2 -41 -3 -24 -1 -30 3
-27 15 5 17 -22 29 -63 29 -12 0 -24 7 -28 15 -3 8 -11 15 -18 15 -7 0 -21 12
-31 25 -24 33 -10 31 33 -5z m365 -10 c30 -24 34 -30 18 -30 -10 0 -32 14 -48
30 -16 17 -24 30 -18 30 6 0 27 -13 48 -30z m-30 -81 c34 -37 35 -40 14 -34
-37 10 -89 75 -61 75 5 0 26 -19 47 -41z m-110 21 c3 -6 -4 -10 -17 -10 -18 0
-20 2 -8 10 19 12 18 12 25 0z m185 -36 c-18 -21 -24 -10 -9 18 8 14 14 18 17
10 2 -7 -2 -19 -8 -28z m-440 -111 c-12 -56 -27 -74 -41 -52 -10 17 -5 37 24
103 19 43 22 46 26 25 1 -13 -2 -48 -9 -76z m265 81 c18 -7 47 -58 38 -68 -14
-14 -32 -4 -51 26 -26 40 -21 55 13 42z m-165 -54 c0 -38 -13 -60 -25 -41 -8
14 6 92 16 85 5 -3 9 -23 9 -44z m100 -14 c0 -22 -17 -46 -32 -46 -18 0 -27
38 -16 76 l10 38 19 -23 c10 -13 19 -33 19 -45z m173 34 c-6 -22 -21 -35 -30
-26 -5 5 24 46 33 46 1 0 0 -9 -3 -20z m-83 -81 c0 -6 -5 -19 -10 -30 -9 -16
-14 -17 -32 -8 l-22 12 23 18 c26 21 41 24 41 8z m-224 -44 c17 -16 9 -38 -23
-67 -20 -18 -27 -16 -57 20 l-20 23 42 -7 c35 -5 42 -4 42 10 0 9 -5 16 -11
16 -5 0 -7 5 -4 10 8 13 14 13 31 -5z m78 -5 c19 0 21 -4 18 -40 -3 -23 1 -47
8 -56 7 -8 13 -29 14 -47 1 -24 7 -35 29 -45 28 -14 35 -40 15 -60 -18 -18
-27 -15 -21 7 3 12 -2 20 -16 24 -12 3 -21 12 -21 21 0 9 -11 44 -25 79 -14
34 -27 80 -29 102 -2 22 -2 34 1 28 3 -7 15 -13 27 -13z"/>
</g>
</svg>
