<?xml version="1.0" standalone="no"?>
<!DOCTYPE svg PUBLIC "-//W3C//DTD SVG 20010904//EN"
 "http://www.w3.org/TR/2001/REC-SVG-20010904/DTD/svg10.dtd">
<svg version="1.0" xmlns="http://www.w3.org/2000/svg"
 width="113.000000pt" height="115.000000pt" viewBox="0 0 113.000000 115.000000"
 preserveAspectRatio="xMidYMid meet">

<g transform="translate(0.000000,115.000000) scale(0.100000,-0.100000)"
fill="#000000" stroke="none">
<path d="M454 1126 c-33 -7 -100 -31 -148 -54 -120 -57 -186 -125 -251 -256
l-49 -99 0 -121 c0 -136 9 -181 54 -279 59 -124 182 -232 317 -278 56 -19 89
-23 190 -23 72 0 127 4 135 11 7 6 28 14 46 18 57 12 148 73 215 144 123 131
173 288 148 467 -7 47 -16 93 -20 102 -5 10 -16 34 -25 55 -26 62 -107 161
-167 206 -73 53 -150 88 -236 106 -80 17 -126 17 -209 1z m301 -143 c73 -38
174 -139 208 -209 114 -228 21 -495 -212 -611 -75 -38 -77 -38 -196 -38 -118
0 -121 1 -190 37 -84 43 -191 150 -219 218 -10 25 -23 56 -30 69 -6 13 -11 69
-11 125 0 112 17 174 67 237 15 20 28 41 28 46 0 12 53 63 66 63 6 0 19 9 28
19 17 18 85 56 131 73 11 4 76 6 145 5 118 -3 128 -4 185 -34z"/>
<path d="M532 838 c-8 -8 -12 -56 -12 -158 l0 -145 103 -103 c90 -90 108 -103
133 -100 24 2 29 8 32 33 2 26 -10 43 -98 130 l-100 100 0 122 c0 68 -4 123
-9 123 -5 0 -15 2 -23 5 -7 3 -19 0 -26 -7z"/>
</g>
</svg>
