<?xml version="1.0" standalone="no"?>
<!DOCTYPE svg PUBLIC "-//W3C//DTD SVG 20010904//EN"
 "http://www.w3.org/TR/2001/REC-SVG-20010904/DTD/svg10.dtd">
<svg version="1.0" xmlns="http://www.w3.org/2000/svg"
 width="500.000000pt" height="500.000000pt" viewBox="0 0 500.000000 500.000000"
 preserveAspectRatio="xMidYMid meet">

<g transform="translate(0.000000,500.000000) scale(0.100000,-0.100000)"
fill="#000000" stroke="none">
<path d="M2002 4368 l3 -193 30 -5 c24 -4 31 -11 33 -35 2 -16 8 -33 14 -36 6
-4 5 -14 -3 -28 -12 -19 -23 -21 -93 -21 -109 0 -203 -18 -233 -44 -51 -44
-56 -72 -54 -321 1 -126 6 -279 11 -340 9 -104 33 -195 52 -195 4 0 8 -6 8
-13 0 -17 54 -68 100 -94 19 -11 69 -26 110 -32 41 -7 82 -19 91 -27 9 -8 25
-45 35 -82 16 -61 19 -137 24 -862 l5 -794 35 -23 c19 -13 53 -29 77 -35 l43
-10 0 -129 0 -129 58 -27 c31 -15 59 -31 60 -36 2 -4 17 -22 33 -40 33 -35 39
-86 14 -107 -13 -11 -15 -31 -11 -109 5 -115 14 -126 111 -136 83 -9 148 1
170 25 23 25 29 184 8 215 -7 11 -13 36 -13 55 0 44 49 102 106 126 72 30 74
34 74 165 l0 118 58 17 c31 9 64 23 73 30 14 13 16 115 22 962 7 935 7 948
-14 1027 -11 44 -25 100 -30 125 -5 25 -14 53 -19 62 -6 10 -10 130 -10 276 0
227 -2 261 -17 282 -46 67 -65 74 -235 78 l-146 4 -5 27 c-4 16 0 30 9 37 8 6
14 23 14 36 0 20 6 27 29 31 l29 6 4 178 c2 98 2 186 0 196 -4 16 -28 17 -333
17 l-329 0 2 -192z m36 60 c-1 -105 -2 -108 -8 -48 -11 98 -11 160 0 160 6 0
9 -43 8 -112z m29 -20 c-2 -24 -4 -5 -4 42 0 47 2 66 4 43 2 -24 2 -62 0 -85z
m43 105 c1 -17 1 -17 11 -1 11 20 59 21 59 1 0 -7 -5 -13 -11 -13 -7 0 -10
-35 -9 -107 3 -132 1 -145 -11 -114 -5 13 -7 33 -3 44 4 13 2 17 -5 13 -15 -9
-14 -149 0 -163 6 -6 17 -9 24 -7 9 4 12 -5 12 -28 -1 -31 -4 -33 -34 -33 -24
0 -33 4 -32 15 3 28 -1 35 -12 20 -8 -12 -9 -9 -5 13 4 15 2 27 -4 27 -5 0
-10 7 -10 16 0 8 5 12 10 9 6 -3 10 1 10 9 0 9 -4 16 -10 16 -6 0 -10 57 -10
150 0 127 2 150 15 150 8 0 15 -8 15 -17z m87 -5 c-3 -8 -6 -5 -6 6 -1 11 2
17 5 13 3 -3 4 -12 1 -19z m81 -85 l-2 -108 -3 88 c-3 73 -6 88 -18 83 -10 -3
-15 1 -15 14 0 10 8 21 18 23 9 3 18 5 20 6 1 0 1 -47 0 -106z m239 -110 c-1
-43 -3 -10 -3 72 0 83 2 118 3 78 2 -40 2 -107 0 -150z m106 200 c-4 -11 -3
-14 5 -9 9 5 12 -33 12 -150 0 -87 -2 -155 -5 -152 -3 3 -6 55 -7 117 0 61 -4
111 -8 111 -5 0 -8 -50 -9 -112 -1 -88 -4 -115 -17 -129 -9 -10 -20 -16 -25
-14 -4 3 -10 1 -14 -5 -16 -25 -20 10 -23 179 l-4 181 51 0 c43 0 49 -2 44
-17z m-396 -235 c-1 -46 -3 -9 -3 82 0 91 2 128 3 83 2 -46 2 -120 0 -165z
m101 230 c9 -9 12 -9 12 0 0 7 14 12 35 12 29 0 35 -4 36 -22 1 -22 1 -22 7
-3 5 15 17 21 45 23 22 2 37 -1 37 -7 0 -6 -3 -11 -7 -11 -5 0 -7 -75 -6 -167
1 -107 -1 -161 -7 -148 -7 17 -9 14 -7 -12 1 -33 12 -44 20 -20 3 9 12 7 36
-6 17 -10 36 -15 41 -12 6 3 10 1 10 -4 0 -6 -7 -11 -15 -11 -9 0 -18 -6 -21
-13 -3 -10 -19 -13 -52 -10 -35 3 -43 1 -32 -6 13 -9 13 -11 -2 -11 -10 0 -19
8 -19 18 -1 16 -2 16 -6 0 -3 -14 -13 -17 -49 -14 -24 2 -44 -1 -44 -5 0 -5
11 -9 24 -9 14 0 28 -4 31 -10 4 -6 -15 -10 -49 -10 -43 0 -56 3 -56 15 0 8
-3 14 -7 14 -5 -1 -17 -1 -28 1 l-20 1 20 9 c16 7 13 9 -17 9 -21 1 -38 3 -38
5 0 2 -3 12 -7 21 -5 15 -1 16 26 10 17 -4 31 -3 30 2 -5 27 1 34 16 19 9 -8
22 -13 30 -9 9 3 23 -1 32 -8 12 -10 15 -10 9 -1 -5 9 8 12 56 12 47 0 59 -3
48 -11 -13 -9 -13 -10 0 -6 22 6 30 78 20 184 -5 52 -6 101 -4 108 3 7 1 16
-5 20 -8 4 -11 -40 -12 -142 -1 -81 -4 -136 -6 -120 -5 31 -23 37 -23 7 0 -16
-7 -20 -30 -20 l-30 0 0 153 c0 101 -4 147 -10 137 -5 -8 -9 -51 -8 -95 1 -44
-2 -95 -6 -112 -5 -22 -4 -33 3 -33 6 0 11 -11 11 -25 0 -14 -4 -25 -9 -25 -5
0 -7 10 -3 22 3 14 2 19 -6 14 -9 -5 -13 34 -14 151 l-2 158 -6 -135 -6 -135
-2 138 c-2 107 1 137 11 137 7 0 18 -5 25 -12z m-141 -60 c-3 -8 -6 -5 -6 6
-1 11 2 17 5 13 3 -3 4 -12 1 -19z m78 -235 c-3 -13 -9 -23 -14 -23 -11 0 -14
198 -4 247 6 31 9 14 16 -82 4 -66 5 -130 2 -142z m-198 35 c-2 -24 -4 -7 -4
37 0 44 2 63 4 43 2 -21 2 -57 0 -80z m130 -90 c-3 -7 -5 -2 -5 12 0 14 2 19
5 13 2 -7 2 -19 0 -25z m351 -115 c10 -31 10 -33 -12 -33 -30 0 -43 39 -19 57
19 15 17 17 31 -24z m-330 -32 c26 2 79 1 117 0 60 -3 65 -4 35 -11 -63 -13
-87 -28 -111 -67 -24 -37 -24 -43 -26 -308 -2 -290 2 -336 43 -420 20 -43 130
-155 151 -155 7 0 13 -4 13 -10 0 -5 7 -10 16 -10 8 0 13 -4 10 -9 -4 -5 3 -7
14 -4 11 3 20 0 20 -6 0 -6 12 -11 28 -11 15 0 46 -9 70 -20 23 -10 42 -15 42
-9 0 6 7 6 19 -1 11 -5 62 -8 115 -7 52 2 94 1 93 -2 -2 -7 8 -11 28 -11 21 0
19 20 -2 21 -10 0 5 6 32 13 28 7 60 18 73 24 l22 13 0 -173 0 -174 -31 -11
-30 -12 6 31 c5 21 4 28 -4 24 -6 -4 -11 -1 -11 8 0 8 -8 13 -17 12 -13 -2
-19 -14 -21 -39 -3 -36 -22 -54 -22 -21 0 10 -6 14 -14 11 -8 -3 -17 -1 -20 6
-2 7 -5 2 -5 -10 -1 -12 -7 -24 -13 -26 -7 -3 -3 -6 8 -6 13 -1 24 -9 27 -21
4 -17 2 -18 -14 -9 -14 7 -19 6 -19 -4 0 -16 42 -20 52 -4 5 8 8 5 8 -8 1 -11
15 -29 35 -42 31 -20 35 -20 48 -5 8 10 19 28 23 42 11 30 21 -862 14 -1155
-4 -176 -7 -200 -21 -200 -16 0 -48 -13 -94 -38 -37 -20 -130 -29 -320 -31
-194 -2 -275 6 -275 28 0 6 -15 13 -32 14 -18 2 -34 7 -36 12 -2 6 -12 10 -21
10 -21 0 -54 33 -44 43 3 4 0 7 -8 7 -12 0 -14 115 -15 788 0 634 -3 797 -14
837 -8 28 -18 53 -23 56 -6 4 -8 16 -5 26 4 14 0 19 -15 20 -11 1 -23 6 -26
12 -4 5 -37 15 -75 21 -77 12 -160 46 -151 61 4 5 1 8 -7 7 -8 -2 -14 9 -17
27 -3 25 -5 27 -10 11 -6 -16 -11 -12 -29 25 -47 99 -49 120 -51 500 -1 255 1
273 42 313 9 10 17 15 17 11 0 -3 12 1 28 8 17 9 69 15 147 16 93 2 122 6 128
17 5 8 12 12 16 9 5 -2 15 2 22 11 12 15 15 13 26 -15 13 -30 16 -32 61 -30z
m-18 49 c0 -5 -5 -10 -11 -10 -5 0 -7 5 -4 10 3 6 8 10 11 10 2 0 4 -4 4 -10z
m277 -15 c0 -8 -4 -15 -9 -15 -4 0 -8 7 -8 15 0 8 4 15 8 15 5 0 9 -7 9 -15z
m147 -41 c35 -13 12 -24 -51 -24 -64 0 -83 8 -30 12 15 1 27 6 27 10 0 9 32
10 54 2z m51 -14 c3 -5 1 -10 -4 -10 -6 0 -11 5 -11 10 0 6 2 10 4 10 3 0 8
-4 11 -10z m-335 -20 c-8 -5 -19 -10 -25 -10 -5 0 -3 5 5 10 8 5 20 10 25 10
6 0 3 -5 -5 -10z m574 -31 c-1 -16 2 -32 8 -35 5 -4 8 -87 7 -207 -1 -111 1
-222 5 -247 7 -40 5 -46 -11 -47 -19 -2 -184 -11 -293 -17 -281 -16 -326 -17
-340 -7 -12 8 -14 47 -14 228 0 267 3 282 52 317 35 24 50 27 178 34 76 4 200
8 274 9 l136 1 -2 -29z m-630 -14 c-9 -14 -19 -23 -22 -20 -5 4 26 45 35 45 2
0 -4 -11 -13 -25z m-20 -50 c-4 -8 -8 -15 -10 -15 -2 0 -4 7 -4 15 0 8 4 15
10 15 5 0 7 -7 4 -15z m-7 -387 c-1 -62 -3 -14 -3 107 0 121 2 172 3 113 2
-59 2 -158 0 -220z m671 -169 c-13 -3 -157 -14 -321 -24 l-298 -19 -15 -25
c-10 -16 -13 -18 -9 -6 4 11 8 27 10 35 2 12 17 15 69 13 36 0 64 2 62 5 -2 4
30 8 71 10 42 1 84 7 93 12 19 10 112 19 243 24 43 2 81 6 85 10 3 4 12 -1 20
-11 11 -15 10 -18 -10 -24z m52 -106 c0 -13 3 -23 8 -23 13 0 12 -70 -2 -105
-15 -36 -30 -49 -19 -17 5 16 5 16 -8 1 -8 -9 -26 -24 -40 -33 -22 -14 -27
-14 -32 -3 -3 8 0 20 6 26 14 14 18 40 12 68 -8 34 -84 64 -179 72 l-81 6 55
6 55 6 -54 1 c-66 2 -134 -16 -127 -34 3 -8 0 -16 -6 -20 -7 -4 -8 -3 -4 4 4
7 2 12 -3 12 -6 0 -11 -5 -11 -11 0 -5 -5 -7 -12 -3 -7 4 -8 3 -4 -4 4 -7 2
-12 -3 -12 -20 0 -12 -49 10 -60 27 -15 59 -47 52 -54 -6 -5 -29 3 -96 34 -47
22 -157 118 -157 137 0 15 12 23 23 16 5 -3 28 -7 51 -9 40 -3 40 -3 16 11
l-25 14 28 1 c15 0 27 -5 27 -12 0 -6 7 -4 18 5 10 10 25 17 33 16 8 0 3 -5
-10 -10 -40 -16 -17 -20 50 -10 35 6 104 11 152 12 60 1 87 5 84 13 -3 7 21
11 75 12 44 1 82 5 86 8 9 9 31 -34 32 -61z m-619 -78 c32 -37 35 -42 10 -20
-18 17 -42 44 -54 60 -24 35 -15 27 44 -40z m259 55 c-8 -5 -19 -10 -25 -10
-5 0 -3 5 5 10 8 5 20 10 25 10 6 0 3 -5 -5 -10z m181 -20 c45 -13 76 -54 58
-76 -6 -8 -19 -14 -28 -14 -12 0 -13 -2 -3 -9 11 -6 -54 -7 -186 -2 -15 1 -21
5 -16 13 5 7 0 9 -14 6 -12 -3 -21 -3 -20 1 1 3 -3 16 -10 27 -31 57 99 89
219 54z m226 -62 c-3 -8 -6 -5 -6 6 -1 11 2 17 5 13 3 -3 4 -12 1 -19z m-7
-43 c0 -15 -56 -55 -75 -54 -5 0 5 8 22 16 18 9 35 25 39 35 7 22 14 24 14 3z
m-535 -23 c-3 -3 -11 0 -18 7 -9 10 -8 11 6 5 10 -3 15 -9 12 -12z m355 -22
c-8 -5 -46 -9 -85 -8 l-70 1 65 7 c109 11 107 11 90 0z m-157 -27 c-7 -2 -19
-2 -25 0 -7 3 -2 5 12 5 14 0 19 -2 13 -5z m184 1 c-3 -3 -12 -4 -19 -1 -8 3
-5 6 6 6 11 1 17 -2 13 -5z m103 -368 c0 -2 -7 -7 -16 -10 -8 -3 -12 -2 -9 4
6 10 25 14 25 6z m11 -19 c-10 -9 -11 -8 -5 6 3 10 9 15 12 12 3 -3 0 -11 -7
-18z m-120 -1451 c6 3 9 -38 7 -108 -2 -84 -6 -112 -15 -111 -7 2 -13 -1 -13
-7 0 -5 -7 -7 -15 -4 -10 4 -15 0 -16 -12 0 -18 -1 -17 -9 1 -8 18 -9 19 -9 1
-1 -11 -6 -16 -15 -13 -8 3 -17 -1 -20 -9 -3 -8 -19 -14 -36 -14 -16 0 -30 -5
-30 -11 0 -6 9 -8 20 -4 24 8 26 -7 4 -29 -17 -17 -22 -18 -99 -21 -27 -1 -59
-5 -71 -9 -14 -5 -26 -2 -36 7 -8 8 -23 16 -33 18 -10 2 -17 8 -16 14 1 5 -6
13 -16 17 -10 4 4 5 30 2 33 -3 47 -1 42 6 -3 5 -17 10 -31 10 -23 0 -24 2
-26 83 l-2 82 -3 -78 c-3 -56 -7 -77 -16 -74 -15 5 -22 190 -8 215 6 9 11 12
11 7 0 -6 19 -10 45 -8 26 2 45 -2 45 -8 0 -5 5 -7 10 -4 6 4 51 7 100 8 50 1
90 5 90 9 0 22 26 -1 31 -27 l6 -30 2 33 c1 42 20 33 22 -11 2 -30 2 -30 9 8
5 31 7 18 9 -52 1 -63 5 -93 12 -93 9 0 10 29 6 102 -3 62 -2 96 4 87 6 -10 9
-6 10 16 0 17 3 24 6 17 2 -6 9 -9 14 -6z m-521 -17 c0 -4 7 -6 15 -3 10 4 15
0 15 -12 0 -16 2 -17 10 -4 19 29 30 -12 30 -117 0 -96 -1 -101 -20 -96 -21 6
-28 25 -7 20 9 -1 12 22 13 88 l2 90 -9 -79 c-4 -43 -11 -81 -15 -85 -3 -3 -3
22 1 57 5 43 4 62 -4 62 -7 0 -11 -28 -11 -77 0 -43 -4 -73 -8 -67 -4 6 -13
13 -21 15 -10 4 -14 31 -15 116 -1 85 2 109 12 106 6 -3 12 -9 12 -14z m355
-389 c0 -61 -6 -64 -125 -58 -44 2 -80 0 -80 -4 0 -5 7 -8 15 -8 21 0 19 -14
-6 -36 -17 -16 -22 -16 -29 -4 -14 21 -12 29 9 59 13 18 18 38 15 57 l-5 30
94 -4 c63 -3 97 0 101 7 11 17 11 15 11 -39z m-5 -85 c-7 -8 -17 -12 -22 -9
-6 4 -5 10 3 15 22 14 33 10 19 -6z m21 -28 c-13 -13 -15 1 -4 30 7 17 8 17
11 -1 2 -10 -1 -23 -7 -29z m-98 22 c27 0 29 -2 11 -9 -24 -10 -74 -2 -74 12
0 6 7 7 16 4 9 -3 30 -6 47 -7z m47 -32 c0 -4 -7 -23 -14 -42 -14 -32 -19 -35
-54 -35 -38 0 -40 2 -54 45 l-15 45 68 -2 c38 -2 69 -6 69 -11z m-162 -45 c2
-18 9 -32 15 -32 8 0 8 -3 -2 -9 -21 -13 69 -23 140 -15 50 6 61 4 57 -7 -7
-21 -66 -35 -89 -21 -10 7 -24 12 -31 11 -7 0 -4 -5 7 -10 14 -6 2 -8 -39 -4
-71 7 -76 9 -76 41 0 13 -6 24 -12 25 -7 0 -4 4 7 9 11 5 14 9 8 9 -7 1 -13
10 -13 22 0 33 25 16 28 -19z m210 13 c-3 -14 -1 -25 3 -25 5 0 9 -7 9 -15 0
-10 -9 -15 -27 -14 -20 1 -22 3 -9 6 11 3 14 8 8 12 -12 7 -4 61 10 61 6 0 8
-11 6 -25z"/>
<path d="M2130 4484 c0 -8 5 -12 10 -9 6 4 8 11 5 16 -9 14 -15 11 -15 -7z"/>
<path d="M2137 4443 c-9 -9 -9 -81 1 -86 4 -3 8 17 9 44 2 50 1 54 -10 42z"/>
<path d="M2092 4290 c0 -14 2 -19 5 -12 2 6 2 18 0 25 -3 6 -5 1 -5 -13z"/>
<path d="M2541 4504 c0 -11 3 -14 6 -6 3 7 2 16 -1 19 -3 4 -6 -2 -5 -13z"/>
<path d="M2592 4230 c0 -19 2 -27 5 -17 2 9 2 25 0 35 -3 9 -5 1 -5 -18z"/>
<path d="M2441 4478 c1 -18 2 -19 6 -5 2 9 9 15 14 12 5 -4 9 -1 9 4 0 6 -7
11 -15 11 -9 0 -15 -9 -14 -22z"/>
<path d="M2411 4454 c0 -11 3 -14 6 -6 3 7 2 16 -1 19 -3 4 -6 -2 -5 -13z"/>
<path d="M2363 4405 c0 -27 2 -38 4 -22 2 15 2 37 0 50 -2 12 -4 0 -4 -28z"/>
<path d="M2414 4415 c-3 -8 -4 -20 -2 -27 3 -7 7 -1 10 15 6 29 1 36 -8 12z"/>
<path d="M2412 4340 c0 -19 2 -27 5 -17 2 9 2 25 0 35 -3 9 -5 1 -5 -18z"/>
<path d="M2391 4324 c0 -11 3 -14 6 -6 3 7 2 16 -1 19 -3 4 -6 -2 -5 -13z"/>
<path d="M2363 4255 c0 -38 2 -53 4 -32 2 20 2 52 0 70 -2 17 -4 1 -4 -38z"/>
<path d="M2472 4290 c0 -19 2 -27 5 -17 2 9 2 25 0 35 -3 9 -5 1 -5 -18z"/>
<path d="M2277 4109 c4 -13 8 -18 11 -10 2 7 -1 18 -6 23 -8 8 -9 4 -5 -13z"/>
<path d="M2868 2925 c-2 -2 -28 -5 -57 -6 -40 -2 -51 -5 -46 -16 3 -8 5 -17 5
-19 0 -2 8 -4 18 -5 10 0 12 -3 5 -6 -20 -7 -15 -23 10 -34 21 -9 21 -9 -3 -6
-20 3 -26 -1 -26 -15 0 -17 7 -18 55 -16 52 3 55 4 56 31 2 23 -2 27 -24 28
-25 1 -25 2 4 9 21 5 24 8 10 10 l-20 1 20 9 c17 7 16 9 -10 10 l-30 2 30 7
c17 4 25 9 19 13 -6 4 -13 5 -16 3z m-25 -112 c-7 -2 -21 -2 -30 0 -10 3 -4 5
12 5 17 0 24 -2 18 -5z"/>
<path d="M2770 2775 c0 -8 2 -15 4 -15 2 0 6 7 10 15 3 8 1 15 -4 15 -6 0 -10
-7 -10 -15z"/>
<path d="M2745 2651 c4 -7 13 -10 20 -7 7 2 22 -2 34 -10 17 -13 21 -13 21 -1
0 7 -6 14 -12 15 -7 1 -26 4 -42 8 -21 5 -27 4 -21 -5z"/>
<path d="M2730 2611 c0 -17 5 -31 11 -31 6 0 8 7 5 16 -4 9 -2 13 5 8 7 -4 10
1 7 11 -6 33 -28 29 -28 -4z"/>
<path d="M2785 2610 c3 -5 -1 -10 -9 -10 -9 0 -16 -4 -16 -10 0 -11 33 -14 43
-4 8 8 -3 34 -15 34 -5 0 -6 -4 -3 -10z"/>
<path d="M2812 2590 c-6 -11 -12 -26 -12 -34 0 -25 -94 -33 -129 -11 -15 9
-41 -18 -41 -42 0 -9 5 -8 20 4 24 21 60 24 60 6 0 -7 -7 -13 -15 -13 -14 0
-20 -12 -16 -33 1 -5 -3 -6 -9 -2 -6 3 -8 10 -5 15 3 5 1 11 -5 15 -15 9 -12
-21 4 -34 10 -8 26 -9 57 -2 24 6 64 11 89 11 47 0 80 13 67 27 -5 4 -12 1
-17 -6 -5 -9 -15 -11 -26 -6 -18 7 -18 8 1 15 l20 7 -20 5 c-16 5 -17 6 -2 7
20 1 23 21 3 21 -8 0 -18 5 -22 12 -4 7 -3 8 4 4 8 -5 12 3 12 23 0 36 -1 37
-18 11z m8 -56 c0 -3 -5 -14 -10 -25 -13 -22 -32 -26 -24 -4 5 11 2 13 -9 9
-9 -3 -18 -13 -20 -22 -4 -15 -5 -15 -6 0 -1 18 32 42 43 31 3 -3 6 -1 6 5 0
7 5 12 10 12 6 0 10 -3 10 -6z m-80 -44 c0 -11 -4 -20 -9 -20 -7 0 -8 17 -2
38 4 10 11 -2 11 -18z"/>
<path d="M2893 2543 c-7 -2 -13 -9 -13 -14 0 -6 4 -8 9 -4 16 9 24 -15 11 -30
-10 -12 -9 -15 9 -15 11 0 21 6 21 13 0 6 3 22 6 35 5 17 2 22 -12 21 -11 0
-25 -3 -31 -6z"/>
<path d="M2860 2535 c0 -13 20 -35 32 -35 4 0 8 5 8 11 0 5 -4 8 -9 4 -6 -3
-14 3 -20 12 -6 10 -11 13 -11 8z"/>
<path d="M2940 2505 c0 -8 5 -15 10 -15 6 0 10 7 10 15 0 8 -4 15 -10 15 -5 0
-10 -7 -10 -15z"/>
<path d="M2590 3861 c0 -5 -7 -17 -17 -26 -19 -20 -30 -179 -16 -235 8 -31 13
-35 47 -38 26 -2 36 0 31 8 -4 7 2 14 15 17 29 8 40 42 38 116 -1 62 -1 62 -8
17 -7 -44 -11 -36 -14 27 0 18 4 33 9 33 6 0 -3 12 -20 27 -16 14 -31 30 -31
35 -1 4 -2 13 -3 18 -1 13 -31 13 -31 1z m38 -141 c3 -88 -3 -120 -23 -120
-12 0 -15 18 -15 101 0 90 2 100 18 97 14 -3 18 -16 20 -78z m44 -92 c-6 -6
-7 0 -4 19 5 21 7 23 10 9 2 -10 0 -22 -6 -28z"/>
<path d="M2800 3109 c0 -5 5 -7 10 -4 6 3 10 8 10 11 0 2 -4 4 -10 4 -5 0 -10
-5 -10 -11z"/>
<path d="M2843 985 c0 -22 2 -30 4 -17 2 12 2 30 0 40 -3 9 -5 -1 -4 -23z"/>
<path d="M2792 985 c0 -16 2 -22 5 -12 2 9 2 23 0 30 -3 6 -5 -1 -5 -18z"/>
<path d="M2742 910 c0 -14 2 -19 5 -12 2 6 2 18 0 25 -3 6 -5 1 -5 -13z"/>
<path d="M2588 863 c6 -2 18 -2 25 0 6 3 1 5 -13 5 -14 0 -19 -2 -12 -5z"/>
<path d="M2638 863 c7 -3 16 -2 19 1 4 3 -2 6 -13 5 -11 0 -14 -3 -6 -6z"/>
<path d="M2598 613 c7 -3 16 -2 19 1 4 3 -2 6 -13 5 -11 0 -14 -3 -6 -6z"/>
<path d="M2638 503 c6 -2 18 -2 25 0 6 3 1 5 -13 5 -14 0 -19 -2 -12 -5z"/>
</g>
</svg>
